<svg xmlns="http://www.w3.org/2000/svg" viewBox="0 0 301.57 488.32">
  <defs>
    <style>
      .bince-emblem-clr {
        fill: #fff;
      }
    </style>
    <filter id="f1" x="0" y="0" width="200%" height="200%">
      <feOffset result="offOut" in="SourceGraphic" dx="20" dy="20" />
      <feBlend in="SourceGraphic" in2="offOut" mode="normal" />
    </filter>
  </defs>
  <path class="bince-emblem-clr"
    d="M232.17,17.59c-26.25-12.42-54.32-17-83-17.26-48-.51-96-.27-144-.32C4.59,0,4,.05,3.42.09a3.23,3.23,0,0,0-3,3.21V362a3.21,3.21,0,0,0,5.31,2.43l66.9-58A3.18,3.18,0,0,0,73.75,304V213.4a3.21,3.21,0,0,1,3.14-3.22H77c25.66,0,51.34-.47,77,.19a183.24,183.24,0,0,1,24.62,2.74,3.24,3.24,0,0,0,2.62-.74L279,127.64a3.23,3.23,0,0,0,1-1.6,94,94,0,0,0,3-21.17C284.34,65.87,270,35.48,232.17,17.59ZM192.83,136.77c-13.53,7.09-28.27,8.81-43.12,9-24.32.4-48.65.12-73,.09h0a3.16,3.16,0,0,1-3.07-3.2V76.53a3.21,3.21,0,0,1,3-3.2c.48,0,1-.06,1.43-.06,24.66,0,49.33-.53,74,.38a179.18,179.18,0,0,1,36.83,5.74c13.46,3.39,20.09,13.37,20.95,27.21S205.07,130.37,192.83,136.77Z" />
  <path class="bince-emblem-clr"
    d="M242.49,367.71c-21.19,11.29-44.2,15.43-68,15.71q-22.74.27-45.49,0a13.52,13.52,0,0,0-9.81,3.72Q62,437.13,4.65,487l-1,.86A2.2,2.2,0,0,1,0,486.14q0-19.83,0-39.68,0-17.31.06-34.61a3.24,3.24,0,0,1,1.11-2.41L114.8,311a3.21,3.21,0,0,1,2.07-.79c17.23-.15,34.45-.16,51.66-.89,15.07-.64,29.79-3.94,42.41-13.09,22.05-16,22.95-49.59,4.24-67.69a3.19,3.19,0,0,1,.18-4.69l42-36.39a3.23,3.23,0,0,1,3.73-.34c19.61,11.19,31.34,29.19,36.81,52C309.63,288.09,293.85,340.35,242.49,367.71Z" />
</svg>